<svg xmlns="http://www.w3.org/2000/svg" xmlns:xlink="http://www.w3.org/1999/xlink" width="28" height="32" viewBox="0 0 28 32">
    <defs>
        <path id="a" d="M0 32h27.73V0H0z"/>
    </defs>
    <g fill="none" fill-rule="evenodd">
        <g>
            <mask id="b" fill="#fff">
                <use xlink:href="#a"/>
            </mask>
            <path fill="#005EBF" d="M13.865 29.25C7.312 29.25 2 23.939 2 17.387 2 10.832 7.312 5.52 13.865 5.52S25.73 10.832 25.73 17.386c0 6.552-5.312 11.865-11.865 11.865zM12.025 2h3.68v1.646a13.88 13.88 0 0 0-1.84-.126c-.625 0-1.238.046-1.84.126V2zm15.704 15.386c0-6.313-4.242-11.65-10.024-13.32V2a2 2 0 0 0-2-2h-3.68a2 2 0 0 0-2 2v2.065C4.243 5.735 0 11.073 0 17.385c0 5.14 2.812 9.63 6.976 12.025l-.708 1.02a1 1 0 0 0 1.642 1.14l.89-1.281c1.571.618 3.278.962 5.065.962 1.786 0 3.493-.344 5.064-.962l.89 1.282a1 1 0 1 0 1.642-1.142l-.708-1.019c4.165-2.395 6.976-6.886 6.976-12.024z" mask="url(#b)"/>
        </g>
        <g fill="#F8D109">
            <path d="M23.516 13.66a.667.667 0 0 0-1.244.48 8.97 8.97 0 0 1 .602 3.245c0 4.968-4.041 9.01-9.01 9.01-4.966 0-9.008-4.042-9.008-9.01 0-4.967 4.042-9.009 9.009-9.009a.666.666 0 1 0 0-1.333c-5.703 0-10.342 4.64-10.342 10.342 0 5.703 4.64 10.342 10.342 10.342 5.703 0 10.342-4.64 10.342-10.342 0-1.283-.232-2.536-.691-3.724"/>
            <path d="M16.446 8.752a8.974 8.974 0 0 1 4.484 3.043.665.665 0 0 0 .936.109.667.667 0 0 0 .109-.937 10.3 10.3 0 0 0-5.147-3.493.667.667 0 1 0-.382 1.278"/>
        </g>
        <path fill="#005EBF" d="M12.706 17.386a1.158 1.158 0 1 0 2.317 0 1.158 1.158 0 0 0-2.317 0M14.531 14.51V10.48a.667.667 0 0 0-1.333 0v4.032a.667.667 0 0 0 1.333 0M20.842 16.719H16.81a.666.666 0 1 0 0 1.333h4.032a.667.667 0 0 0 0-1.333"/>
    </g>
</svg>
