<svg xmlns="http://www.w3.org/2000/svg" width="60" height="60" viewBox="0 0 60 60">
    <g fill="none" fill-rule="evenodd">
        <ellipse cx="30" cy="30" fill="#F8D109" rx="30" ry="30"/>
        <g stroke-linecap="round" stroke-linejoin="round" stroke-width="2">
            <path stroke="#FFF" d="M23.834 38h13.334M27 20.418v8.437M30 28.855v-8.437M33 28.855v-6.75"/>
            <path stroke="#005EBF" d="M37.168 22.105v18.563c0 .928-.75 1.687-1.667 1.687h-10c-.917 0-1.667-.759-1.667-1.687v-4.405l-4.466-4.522a1.716 1.716 0 0 1 0-2.396c.65-.658 1.7-.658 2.35 0l2.116 2.143v-11.07c0-.928.75-1.688 1.667-1.688s1.667.76 1.667 1.688V18.73c0-.928.75-1.687 1.666-1.687.917 0 1.667.76 1.667 1.687v1.688c0-.928.75-1.688 1.667-1.688.916 0 1.666.76 1.666 1.688v1.687c0-.928.75-1.687 1.667-1.687s1.667.76 1.667 1.687z"/>
        </g>
    </g>
</svg>
