<svg xmlns="http://www.w3.org/2000/svg" width="27" height="26" viewBox="0 0 27 26">
    <g fill="none" fill-rule="evenodd">
        <path fill="#005EBF" d="M14.538 18.373h8.007V12.33h-8.007v6.043zm8.007 6.002H1.612V6.327h20.933v4.919h-8.007a1.08 1.08 0 0 0-1.075 1.084v6.043a1.08 1.08 0 0 0 1.075 1.084h8.007v4.918zm-2.057-22.75v3.076H1.612v-.987h12.926a.54.54 0 0 0 .537-.542.54.54 0 0 0-.537-.542H1.612V1.626h18.876zm2.057 3.076H22.1V1.626A1.62 1.62 0 0 0 20.488 0H1.612A1.62 1.62 0 0 0 0 1.626v22.749C0 25.272.722 26 1.612 26h20.933c.89 0 1.612-.728 1.612-1.625V6.327A1.62 1.62 0 0 0 22.545 4.7z"/>
        <path fill="#F8D109" d="M17.06 3.521h1.508a.54.54 0 0 0 .538-.542.54.54 0 0 0-.538-.542H17.06a.54.54 0 0 0-.538.542.54.54 0 0 0 .538.542M24.717 3.521h1.508a.54.54 0 0 0 .538-.542.54.54 0 0 0-.538-.542h-1.508a.54.54 0 0 0-.538.542.54.54 0 0 0 .538.542M17.458 16.595a1.24 1.24 0 0 0 1.234-1.244c0-.687-.552-1.244-1.234-1.244-.681 0-1.234.557-1.234 1.244a1.24 1.24 0 0 0 1.234 1.244"/>
    </g>
</svg>
