<svg xmlns="http://www.w3.org/2000/svg" xmlns:xlink="http://www.w3.org/1999/xlink" width="60" height="60" viewBox="0 0 60 60">
    <defs>
        <path id="a" d="M0 16.941h30.625V.06H0z"/>
    </defs>
    <g fill="none" fill-rule="evenodd">
        <circle cx="30" cy="30" r="30" fill="#F8D109"/>
        <g transform="rotate(25 -16.895 56.601)">
            <g transform="translate(0 4.91)">
                <mask id="b" fill="#fff">
                    <use xlink:href="#a"/>
                </mask>
                <path fill="#005EBF" stroke="#005EBF" d="M15.282 16.287l13.79-.001c.685 0 .894-.21.894-.884V1.617c0-.696-.21-.908-.92-.908H1.599c-.735 0-.938.206-.938.935v13.65c0 .824.17.992 1.01.992h13.61m-13.64.655c-.923.006-1.651-.437-1.64-1.648C.04 10.73.015 6.165.015 1.6.016.55.498.067 1.566.067 10.73.066 19.892.071 29.054.06c.991-.001 1.578.583 1.571 1.58-.032 4.58-.014 9.16-.014 13.739 0 1.088-.467 1.55-1.573 1.55H15.294c-4.552 0-9.103-.014-13.654.013z" mask="url(#b)"/>
            </g>
            <path fill="#FFF" stroke="#FFF" d="M15.314 3.685H3.963c-.136 0-.273.014-.407-.004-.243-.032-.595.006-.573-.335.008-.12.385-.217.596-.318.037-.018.09-.004.135-.004 7.733 0 15.466 0 23.199.005.285 0 .732-.069.734.314.001.427-.461.337-.757.337-3.858.008-7.717.005-11.576.005M15.154.873H5.029c-.12 0-.243.013-.362-.005-.217-.031-.53.006-.511-.335.006-.119.343-.217.531-.318.033-.018.08-.003.12-.003C11.705.212 18.602.21 25.5.216c.254 0 .654-.069.655.315.001.426-.411.336-.675.337-3.442.007-6.884.005-10.326.005"/>
            <path fill="#005EBF" d="M5.249 6.956c-.503 2.495-.831 2.852-3.262 3.572v5.805c.915.106 1.724.39 2.333 1.088.608.698.815 1.55.904 2.452h20.181c.176-2.02 1.124-3.32 3.235-3.542v-5.183c-2.346-.437-2.957-2.185-3.271-4.192H5.249zm-3.924 10.02v-7.12c.957-.033 1.91-.11 2.544-.921.59-.754.753-1.653.685-2.63H26.06c-.054 1.022.15 1.993.674 2.876.566.958 1.447 1.353 2.561 1.312v6.476c-2.436-.071-3.282 1.347-3.244 3.56H4.584c.024-2.15-.761-3.625-3.259-3.553z"/>
            <path fill="#005EBF" d="M26.66 13.418a1.884 1.884 0 0 0-1.886-1.892c-1.047-.01-1.913.824-1.93 1.857-.018 1.032.875 1.93 1.917 1.926a1.918 1.918 0 0 0 1.898-1.891m-4.56-.016c.002-1.433 1.213-2.634 2.656-2.636 1.437-.002 2.66 1.206 2.664 2.632.005 1.452-1.228 2.672-2.683 2.656-1.454-.016-2.64-1.208-2.637-2.652M3.25 15.89l-.619-.419 3.252-4.857.622.41L3.25 15.89M5.53 15.89l-.62-.42 3.253-4.858.623.41L5.53 15.89M6.834 18.921c-.353-.008-.662-.334-.64-.677a.665.665 0 0 1 .665-.604c.36.006.66.322.638.673a.667.667 0 0 1-.663.608M24.432 18.342a.666.666 0 0 1-.737.57c-.345-.051-.599-.366-.562-.697a.64.64 0 0 1 .733-.562c.342.045.604.364.566.69M23.768 7.908c.358-.007.673.3.666.648-.006.329-.306.625-.64.633-.353.008-.673-.305-.667-.653a.662.662 0 0 1 .64-.628M6.865 7.909c.34.008.633.3.635.633a.669.669 0 0 1-.672.647c-.335-.012-.633-.31-.636-.639-.003-.347.315-.65.673-.641"/>
            <ellipse cx="14.858" cy="13.77" fill="#FFF" rx="3.833" ry="3.833" transform="rotate(25 14.858 13.77)"/>
        </g>
    </g>
</svg>
