<?xml version="1.0" ?><svg viewBox="0 0 20 20" xmlns="http://www.w3.org/2000/svg"><defs><style>.cls-1{fill:#8e8e8e;}</style></defs><title/><g data-name="Layer 2" id="Layer_2"><g data-name="Layer 1" id="Layer_1-2"><path class="cls-1" d="M17,5V18.17A1,1,0,0,1,16,19H4a1,1,0,0,1-1-.83V5H17m1-1H2V18.17A1.94,1.94,0,0,0,4,20H16a1.94,1.94,0,0,0,2-1.83V4Z"/><rect class="cls-1" height="9" width="1" x="11" y="7"/><rect class="cls-1" height="8" width="1" x="14" y="8"/><rect class="cls-1" height="9" width="1" x="8" y="7"/><rect class="cls-1" height="8" width="1" x="5" y="8"/><path class="cls-1" d="M12.52,1A1.46,1.46,0,0,1,14,2.43V4H6V2.43A1.46,1.46,0,0,1,7.48,1h5m0-1h-5A2.46,2.46,0,0,0,5,2.43V5H15V2.43A2.46,2.46,0,0,0,12.52,0Z"/><rect class="cls-1" height="1" width="20" y="4"/></g></g></svg>