<svg width="128" height="128" xmlns="http://www.w3.org/2000/svg">

 <g>
  <title>background</title>
  <rect fill="none" id="canvas_background" height="402" width="582" y="-1" x="-1"/>
 </g>
 <g>
  <title>Layer 1</title>
  <g stroke="null" id="svg_1">
   <g stroke="null" id="svg_2">
    <g stroke="null" id="svg_3">
     <g stroke="null" id="svg_4">
      <g stroke="null" id="svg_5">
       <path stroke="null" id="svg_6" fill="#F36360" d="m63.845842,5.371952c-32.583395,0 -58.782206,26.418969 -58.782206,58.782206c0,16.291698 6.604742,31.042289 17.17233,41.609876c10.567588,10.567588 25.318179,17.17233 41.609876,17.17233c32.583395,0 58.782206,-26.418969 58.782206,-58.782206s-26.198811,-58.782206 -58.782206,-58.782206z"/>
      </g>
      <g stroke="null" id="svg_7">
       <path stroke="null" id="svg_8" fill="#4A374F" d="m63.845842,0.308316c-35.225292,0 -63.845842,28.62055 -63.845842,63.845842c0,16.952172 6.604742,33.023711 18.713436,45.132406c12.108694,12.108694 28.180234,18.713436 45.132406,18.713436c35.225292,0 63.845842,-28.62055 63.845842,-63.845842s-28.62055,-63.845842 -63.845842,-63.845842zm0,117.564413c-14.310275,0 -27.960076,-5.503952 -38.087347,-15.631223c-10.127272,-10.127272 -15.851381,-23.556914 -15.851381,-38.087347c0,-29.72134 24.217388,-53.718571 53.718571,-53.718571s53.718571,24.217388 53.718571,53.718571s-23.777072,53.718571 -53.498413,53.718571z"/>
       <path stroke="null" id="svg_9" fill="#4A374F" d="m84.100385,59.090522l-15.190907,0l0,-15.190907c0,-2.862055 -2.201581,-5.063636 -5.063636,-5.063636s-5.063636,2.201581 -5.063636,5.063636l0,15.190907l-15.190907,0c-2.862055,0 -5.063636,2.201581 -5.063636,5.063636c0,2.862055 2.201581,5.063636 5.063636,5.063636l15.190907,0l0,15.190907c0,2.862055 2.201581,5.063636 5.063636,5.063636s5.063636,-2.201581 5.063636,-5.063636l0,-15.190907l15.190907,0c2.862055,0 5.063636,-2.201581 5.063636,-5.063636c-0.220158,-2.862055 -2.421739,-5.063636 -5.063636,-5.063636z"/>
      </g>
     </g>
    </g>
   </g>
  </g>
 </g>
</svg>