<svg width="95.99999999999999" height="95.99999999999999" xmlns="http://www.w3.org/2000/svg">

 <g>
  <title>background</title>
  <rect fill="none" id="canvas_background" height="402" width="582" y="-1" x="-1"/>
 </g>
 <g>
  <title>Layer 1</title>
  <path fill="#00b8ce" id="svg_1" d="m80,4l-64,0c-6.63,0 -12,5.37 -12,12l0,64c0,6.63 5.37,12 12,12l64,0c6.63,0 12,-5.37 12,-12l0,-64c0,-6.63 -5.37,-12 -12,-12zm4,76c0,2.21 -1.79,4 -4,4l-64,0c-2.21,0 -4,-1.79 -4,-4l0,-64c0,-2.21 1.79,-4 4,-4l64,0c2.21,0 4,1.79 4,4l0,64z"/>
  <path fill="#5fbf00" id="svg_2" d="m66.385,35.272c-1.562,-1.562 -4.095,-1.562 -5.656,0l-16.972,16.971l-8.485,-8.485c-1.562,-1.562 -4.095,-1.562 -5.657,0c-1.562,1.562 -1.562,4.095 0,5.657l11.312,11.312c1.562,1.562 4.095,1.562 5.657,0l19.799,-19.799c1.564,-1.561 1.564,-4.093 0.002,-5.656z"/>
 </g>
</svg>