<svg width="128" height="128" xmlns="http://www.w3.org/2000/svg">

 <g>
  <title>background</title>
  <rect fill="none" id="canvas_background" height="402" width="582" y="-1" x="-1"/>
 </g>
 <g>
  <title>Layer 1</title>
  <g stroke="null" id="svg_1">
   <g stroke="null" id="svg_2">
    <g stroke="null" id="svg_3">
     <circle stroke="null" id="svg_4" r="58.793335" fill="#F36360" cy="64.142072" cx="63.857928"/>
    </g>
    <g stroke="null" id="svg_5">
     <path stroke="null" id="svg_6" fill="#4A374F" d="m81.694108,46.305892c-1.981798,-1.981798 -5.064594,-1.981798 -7.046392,0l-10.789788,10.789788l-10.789788,-10.789788c-1.981798,-1.981798 -5.064594,-1.981798 -7.046392,0s-1.981798,5.064594 0,7.046392l10.789788,10.789788l-10.789788,10.789788c-1.981798,1.981798 -1.981798,5.064594 0,7.046392c0.880799,0.880799 2.201998,1.541398 3.523196,1.541398c1.321199,0 2.642397,-0.4404 3.523196,-1.541398l10.789788,-10.789788l10.789788,10.789788c0.880799,0.880799 2.201998,1.541398 3.523196,1.541398c1.321199,0 2.642397,-0.4404 3.523196,-1.541398c1.981798,-1.981798 1.981798,-5.064594 0,-7.046392l-10.789788,-10.789788l10.789788,-10.789788c1.981798,-1.981798 1.981798,-5.064594 0,-7.046392z"/>
     <path stroke="null" id="svg_7" fill="#4A374F" d="m63.857928,0.284144c-35.23196,0 -63.857928,28.625968 -63.857928,63.857928s28.625968,63.857928 63.857928,63.857928s63.857928,-28.625968 63.857928,-63.857928s-28.625968,-63.857928 -63.857928,-63.857928zm0,117.586667c-29.726967,0 -53.728739,-24.221973 -53.728739,-53.728739s24.221973,-53.728739 53.728739,-53.728739s53.728739,24.221973 53.728739,53.728739s-24.001773,53.728739 -53.728739,53.728739z"/>
    </g>
   </g>
  </g>
 </g>
</svg>