<?xml version="1.0" ?><svg enable-background="new 0 0 128 128" version="1.1" viewBox="0 0 128 128" xml:space="preserve" xmlns="http://www.w3.org/2000/svg" xmlns:xlink="http://www.w3.org/1999/xlink"><g id="Слой_2"/><g id="_x2B__more_4"><g id="calculator"><path d="M89,105H39    c-2.2,0-4-1.8-4-4V27c0-2.2,1.8-4,4-4h50c2.2,0,4,1.8,4,4v74C93,103.2,91.2,105,89,105z" fill="#F5F5F5" stroke="#B0BEC5" stroke-linejoin="round" stroke-miterlimit="10" stroke-width="2"/><rect fill="#C0CA33" height="18" stroke="#9E9D24" stroke-linejoin="round" stroke-miterlimit="10" stroke-width="2" width="46" x="41" y="31"/><rect fill="#FFFFFF" height="20" stroke="#CFD8DC" stroke-linejoin="round" stroke-miterlimit="10" stroke-width="2" width="20" x="41" y="54"/><rect fill="#FFFFFF" height="20" stroke="#CFD8DC" stroke-linejoin="round" stroke-miterlimit="10" stroke-width="2" width="20" x="41" y="79"/><rect fill="#FFFFFF" height="20" stroke="#CFD8DC" stroke-linejoin="round" stroke-miterlimit="10" stroke-width="2" width="20" x="67" y="54"/><rect fill="#FFFFFF" height="20" stroke="#CFD8DC" stroke-linejoin="round" stroke-miterlimit="10" stroke-width="2" width="20" x="67" y="79"/><line fill="none" stroke="#546E7A" stroke-linejoin="round" stroke-miterlimit="10" stroke-width="2" x1="44" x2="58" y1="64" y2="64"/><g><line fill="none" stroke="#546E7A" stroke-linejoin="round" stroke-miterlimit="10" stroke-width="2" x1="46.1" x2="55.9" y1="84.1" y2="93.9"/><line fill="none" stroke="#546E7A" stroke-linejoin="round" stroke-miterlimit="10" stroke-width="2" x1="46.1" x2="55.9" y1="93.9" y2="84.1"/></g><g><line fill="none" stroke="#546E7A" stroke-linejoin="round" stroke-miterlimit="10" stroke-width="2" x1="70" x2="84" y1="87" y2="87"/><line fill="none" stroke="#546E7A" stroke-linejoin="round" stroke-miterlimit="10" stroke-width="2" x1="70" x2="84" y1="91" y2="91"/></g><g><line fill="none" stroke="#546E7A" stroke-linejoin="round" stroke-miterlimit="10" stroke-width="2" x1="70" x2="84" y1="64" y2="64"/><line fill="none" stroke="#546E7A" stroke-linejoin="round" stroke-miterlimit="10" stroke-width="2" x1="77" x2="77" y1="58" y2="70"/></g><g><rect fill="#F5F5F5" height="16" stroke="#CFD8DC" stroke-linejoin="round" stroke-miterlimit="10" stroke-width="2" transform="matrix(0.8944 -0.4472 0.4472 0.8944 -7.1135 11.8669)" width="16" x="13.6" y="13"/><line fill="none" stroke="#78909C" stroke-linejoin="round" stroke-miterlimit="10" stroke-width="2" x1="19.8" x2="23.4" y1="26.4" y2="15.6"/><ellipse cx="17.6" cy="19.7" fill="none" rx="1.5" ry="1.5" stroke="#78909C" stroke-linejoin="round" stroke-miterlimit="10" stroke-width="2" transform="matrix(0.8944 -0.4472 0.4472 0.8944 -6.9384 9.9252)"/><ellipse cx="25.6" cy="22.3" fill="none" rx="1.5" ry="1.5" stroke="#78909C" stroke-linejoin="round" stroke-miterlimit="10" stroke-width="2" transform="matrix(0.8944 -0.4472 0.4472 0.8944 -7.2885 13.8085)"/></g><g><rect fill="#F5F5F5" height="16" stroke="#CFD8DC" stroke-linejoin="round" stroke-miterlimit="10" stroke-width="2" width="16" x="10" y="40"/><polyline fill="none" points="14.5,44.5      21.5,48 14.5,51.5    " stroke="#78909C" stroke-linejoin="bevel" stroke-miterlimit="10" stroke-width="2"/></g><g><rect fill="#F5F5F5" height="16" stroke="#CFD8DC" stroke-linejoin="round" stroke-miterlimit="10" stroke-width="2" width="16" x="100" y="102"/><polyline fill="none" points="104,110      106.3,114.5 108,106 112.5,106    " stroke="#78909C" stroke-linejoin="bevel" stroke-miterlimit="10" stroke-width="2"/></g><g><rect fill="#F5F5F5" height="16" stroke="#CFD8DC" stroke-linejoin="round" stroke-miterlimit="10" stroke-width="2" transform="matrix(0.9675 0.2528 -0.2528 0.9675 25.4575 -25.3441)" width="16" x="103.4" y="78.4"/><line fill="none" stroke="#78909C" stroke-linejoin="round" stroke-miterlimit="10" stroke-width="2" x1="106.3" x2="108" y1="89.7" y2="83.4"/><path d="M107.4,85.9     c0.3-1.1,1.4-1.7,2.4-1.4c1.1,0.3,1.7,1.4,1.4,2.4l-1,3.9" fill="none" stroke="#78909C" stroke-linejoin="round" stroke-miterlimit="10" stroke-width="2"/><line fill="none" stroke="#78909C" stroke-linejoin="round" stroke-miterlimit="10" stroke-width="2" x1="116.4" x2="114.8" y1="83" y2="88.9"/><line fill="none" stroke="#78909C" stroke-linejoin="round" stroke-miterlimit="10" stroke-width="2" x1="114.1" x2="114.5" y1="91.8" y2="90.3"/></g></g></g><g id="icons"/></svg>