<svg width="128" height="128" xmlns="http://www.w3.org/2000/svg">

 <g>
  <title>background</title>
  <rect fill="none" id="canvas_background" height="402" width="582" y="-1" x="-1"/>
 </g>
 <g>
  <title>Layer 1</title>
  <g stroke="null" id="svg_1">
   <g stroke="null" id="svg_2">
    <g stroke="null" id="svg_3">
     <circle stroke="null" id="svg_4" r="58.765808" fill="#F36360" cy="63.999998" cx="63.999997"/>
    </g>
    <g stroke="null" id="svg_5">
     <path stroke="null" id="svg_6" fill="#4A374F" d="m63.999997,0.171963c-35.364433,0 -64.098035,28.612568 -64.098035,63.828035s28.733602,63.828035 64.098035,63.828035s64.098035,-28.612568 64.098035,-63.828035s-28.733602,-63.828035 -64.098035,-63.828035zm0,117.531624c-29.83874,0 -53.93076,-24.210634 -53.93076,-53.703588s24.313048,-53.703588 53.93076,-53.703588s53.93076,24.210634 53.93076,53.703588s-24.09202,53.703588 -53.93076,53.703588z"/>
    </g>
    <g stroke="null" id="svg_7">
     <path stroke="null" id="svg_8" fill="#4A374F" d="m84.445058,58.937775l-40.669098,0c-2.87336,0 -5.083637,2.200967 -5.083637,5.062223c0,2.861257 2.210277,5.062223 5.083637,5.062223l40.44807,0c2.87336,0 5.083637,-2.200967 5.083637,-5.062223c0,-2.861257 -2.210277,-5.062223 -4.86261,-5.062223z"/>
    </g>
    <g stroke="null" id="svg_10">
     <path stroke="null" id="svg_9" fill="#4A374F" d="m84.445058,38.654357l-40.669098,0c-2.87336,0 -5.083637,2.200967 -5.083637,5.062223c0,2.861257 2.210277,5.062223 5.083637,5.062223l40.44807,0c2.87336,0 5.083637,-2.200967 5.083637,-5.062223c0,-2.861257 -2.210277,-5.062223 -4.86261,-5.062223z"/>
    </g>
    <g stroke="null" id="svg_12">
     <path stroke="null" id="svg_11" fill="#4A374F" d="m84.445061,79.221193l-40.669098,0c-2.87336,0 -5.083637,2.200967 -5.083637,5.062223c0,2.861257 2.210277,5.062223 5.083637,5.062223l40.44807,0c2.87336,0 5.083637,-2.200967 5.083637,-5.062223c0,-2.861257 -2.210277,-5.062223 -4.86261,-5.062223z"/>
    </g>
   </g>
  </g>
 </g>
</svg>