<svg width="128" height="128" xmlns="http://www.w3.org/2000/svg">

 <g>
  <title>background</title>
  <rect fill="none" id="canvas_background" height="402" width="582" y="-1" x="-1"/>
 </g>
 <g>
  <title>Layer 1</title>
  <g stroke="null" id="svg_1">
   <g stroke="null" id="svg_2">
    <g stroke="null" id="svg_3">
     <circle stroke="null" id="svg_4" r="58.855422" fill="#F36360" cy="64.074637" cx="63.925363"/>
    </g>
    <g stroke="null" id="svg_5">
     <path stroke="null" id="svg_6" fill="#4A374F" d="m63.925363,0.149273c-35.269166,0 -63.925363,28.656197 -63.925363,63.925363s28.656197,63.925363 63.925363,63.925363s63.925363,-28.656197 63.925363,-63.925363s-28.656197,-63.925363 -63.925363,-63.925363zm0,117.710842c-29.758359,0 -53.785478,-24.247552 -53.785478,-53.785478s24.247552,-53.785478 53.785478,-53.785478s53.785478,24.247552 53.785478,53.785478s-24.027119,53.785478 -53.785478,53.785478z"/>
    </g>
    <g stroke="null" id="svg_7">
     <path stroke="null" id="svg_8" fill="#4A374F" d="m84.205134,59.004694l-40.559541,0c-2.86562,0 -5.069943,2.204323 -5.069943,5.069943c0,2.86562 2.204323,5.069943 5.069943,5.069943l40.339109,0c2.86562,0 5.069943,-2.204323 5.069943,-5.069943c0,-2.86562 -2.204323,-5.069943 -4.84951,-5.069943z"/>
    </g>
   </g>
  </g>
 </g>
</svg>